<?xml version="1.0" encoding="UTF-8"?>
<svg width="300" height="450" viewBox="0 0 300 450" fill="none" xmlns="http://www.w3.org/2000/svg">
  <rect width="300" height="450" fill="#f0f0f0"/>
  <!-- Centered Question Mark -->
  <path d="M150 100C194.183 100 230 135.817 230 180C230 208.761 214.823 233.923 191.604 247.653C174.675 257.665 170 268.5 170 285V295H130V285C130 256.5 147.325 241.335 163.396 231.847C177.177 223.708 190 210.739 190 180C190 157.909 172.091 140 150 140C127.909 140 110 157.909 110 180H70C70 135.817 105.817 100 150 100Z" fill="#9E9E9E"/>
  <rect x="130" y="320" width="40" height="40" fill="#9E9E9E"/>
</svg>
